<svg width="420" height="420" viewBox="0 0 420 420" fill="none" xmlns="http://www.w3.org/2000/svg">
  <defs>
    <linearGradient id="g1" x1="30" y1="30" x2="390" y2="390" gradientUnits="userSpaceOnUse">
      <stop stop-color="#F14D82"/>
      <stop offset="1" stop-color="#B4144A"/>
    </linearGradient>
    <filter id="shadow" x="0" y="0" width="420" height="420" filterUnits="userSpaceOnUse" color-interpolation-filters="sRGB">
      <feDropShadow dx="0" dy="18" stdDeviation="16" flood-color="#A21345" flood-opacity="0.35"/>
    </filter>
  </defs>
  <rect x="28" y="28" width="364" height="364" rx="80" fill="white" fill-opacity="0.88"/>
  <g filter="url(#shadow)">
    <path d="M210 303C208 303 206 302 204 301C145 261 102 225 102 171C102 130 133 100 174 100C196 100 217 109 230 125C243 109 264 100 286 100C327 100 358 130 358 171C358 225 315 261 256 301C254 302 252 303 250 303H210Z" fill="url(#g1)"/>
    <path d="M230 137C218 119 197 108 174 108C137 108 110 135 110 171C110 221 149 255 209 295H251C311 255 350 221 350 171C350 135 323 108 286 108C263 108 242 119 230 137Z" fill="white" fill-opacity="0.15"/>
  </g>
  <circle cx="210" cy="210" r="178" stroke="#E32267" stroke-opacity="0.24" stroke-width="4" stroke-dasharray="10 12"/>
  <text x="210" y="372" text-anchor="middle" fill="#A21345" font-size="28" font-family="'Segoe UI', sans-serif" font-weight="700">[LOGO_DOSYASI]</text>
</svg>
